<svg id="Layer_1" data-name="Layer 1" xmlns="http://www.w3.org/2000/svg" viewBox="0 0 696.64 1052.97"><defs><style>.cls-1{fill:#fff;}.cls-2{fill:#231f20;}</style></defs><title>Stag-Logo-white2</title><path class="cls-1" d="M268.71-59.37c-38.64,0-83.49,13.81-87.91,15.74A27.36,27.36,0,0,0,167.75-31.2C164.2-24.83,140.59-9.06,137.36-4c-3.66-2.09-8.26-2.09-9.77,2.23C124.28,7.64,107.17,22.69,105,25.72s-5.67,7.4-7.83,20.36-5,28-7.42,32.38c-2.31,4.22-10.23,14.32-13,17.08S69.58,106,68.85,111.31c-.64,4.69,0,10.65,0,14.59s3.34,21.18,3.34,29.74-2.66,19.33-3.9,20.45c-3,2.74-3.19,5.7-.59,11.93s5.26,19.21,6.16,29.24c-2.61,9.3-3.76,13.58-4.28,20.78-.72,9.89-.11,16,6,28.19,6.34,12.73,28.86,45.1,27.75,49.31,7.62,1.27,21.1,5.95,24.55,6.79-7.73,2.71-11.51,12.54-10.55,16.19,1.29,4.92,7.15,9.61,14.62,12.07s19.57,1.05,21.93,2.23c7.26,22,9,52.91,10.25,62.36.6,4.59-18.39,15.43-23.91,19.37S87.32,481.3,77.46,492.5c-1.65,1.88-11.87,7.62-17.44,8.94-3.69.88-52.84,9.4-61,12.81-2.53,1-8.53,5.91-8.83,9.61S-18.55,631-18.66,643.08s-.9,32.67,22.08,44.55c18.26,9.44,50.31,20.09,53.5,24.28a145.35,145.35,0,0,0-23.37-2c-19.76,0-60.3,10.19-61.67,55-.95,31.19,15.43,56.78,66.14,64.17C24.59,836.63-5.27,850.16-16,862.65a27.34,27.34,0,0,0-5.71,26.27c3.22,10.73,13.56,12.23,19.26,12,.12,2.93,0,12.47.22,19.86C-16.39,915-28,919.5-34.34,930.59c-4.55,8-5.48,31.12,5.11,40.08-3.4,4.62-5.3,6.85-5,11.89s5.8,11,16.06,11c29.47,0,31.28-36.16,47.66-35.16,3.94-2.26,15.44-2.62,21.12-8.52,10-10.4,77.28-49.42,237-49.42S555.76,925.73,614.1,983c3.55,3.49,12.66,2.41,15.92-2.58,4.84-7.37,3.06-18.56,1.74-22-1.23-3.21-5.44-7.34-5.44-7.34s-.86-10,.67-14.69c10.11,2.59,26.93-.47,31.36-19.54,1.17-5,.93-25.56-.87-34.32-1.59-7.76-10.34-29.75-22.17-33.69,9.21-5.19,14.59-8.68,16.56-14.59s2.59-13.17-.79-19.71-9.86-13.4-9.86-45.33,2.17-31.66,4.54-41.91-5.18-16.61-8.73-18.19-12.25-5.63-18.31-7c6.54-8.43,9.41-19.07,13.74-30.89s6.12-55.78,1.78-67.21-5.57-5.33-5.93-21.54c-.31-14.24-3.8-74.76-3.41-83.43s-3.65-14.08-10.35-17.64-19.14-7.39-24.66-9.75-19.29-11.15-33.65-22.44c-10.18-8-36.74-16.17-45.94-17.89-5.05-.95-25.22-5.41-45.14-6.68-10.88-.69-28.17-5.1-33.65-7.21-4.49-1.73-9.94-7.58-6-13.76,11.43-18,26.78-66.67,27.68-84.24.7-13.75,2-43.63,2-43.63s9.54-7.25,13.5-10.5c4.5-3.69,8-12.62,9.9-19.5,6.6-23.7,2.51-51.93,2.4-59-.11-7.52-8.73-16.42-12.9-21.06a27.11,27.11,0,0,0-20.64-8.7c3.6-8.32,2.06-33.29,2.59-40.61s1.56-11.37,5.1-17.28-1.8-10-4.16-13.11S439.79,57.7,436.24,50.21s-13.4-33.11-19.31-37.45S386.52-14.53,382.27-21c-1.95-3-1.23-7.71-3.58-9.24-1.75-1.13-8.43-1-11.46-1.72C358.77-34.34,321.13-59.37,268.71-59.37Z" transform="translate(37.57 59.37)"/><path class="cls-1" d="M525.65,952.86c10.46,0,18.93,7.81,18.93,17.44s-8.47,17.43-18.93,17.43l-443.79.75c-10.45,0-18.93-7.81-18.93-17.44s8.48-17.43,18.93-17.43Z" transform="translate(37.57 59.37)"/><polygon class="cls-2" points="179.7 1038.57 173.35 1038.57 163.95 1023.31 163.85 1023.34 163.85 1038.57 156.72 1038.57 156.72 1020.78 169.22 1020.78 176.64 1033.71 176.74 1033.71 184.82 1020.78 196.88 1020.78 196.88 1038.57 189.73 1038.57 189.73 1023.34 189.64 1023.31 179.7 1038.57"/><rect class="cls-2" x="213.13" y="1020.78" width="7.63" height="17.79"/><polygon class="cls-2" points="237 1038.57 237 1020.78 244.63 1020.78 244.63 1035.61 260.04 1035.61 260.04 1038.57 237 1038.57"/><polygon class="cls-2" points="288.01 1020.78 296.62 1020.78 302.82 1034.16 302.92 1034.16 308.63 1020.78 315.93 1020.78 306.86 1038.57 298.4 1038.57 292 1025.03 291.89 1025.03 285 1038.57 276.34 1038.57 267.68 1020.78 275.54 1020.78 281.01 1034.16 281.11 1034.16 288.01 1020.78"/><path class="cls-2" d="M287.5,979.19l12.84-17.79h9.07l12.36,17.79h-7.68l-2.56-3.78H297.45l-2.66,3.78Zm22.11-6.72-4.88-7.59h-.09l-5.22,7.59Z" transform="translate(37.57 59.37)"/><path class="cls-2" d="M366.81,961.41v11.13c0,4.73-6.79,7-15.41,7s-15.41-2.29-15.41-7V961.41h7.64v9.65c0,3,.3,5.73,7.77,5.73s7.79-2.73,7.79-5.73v-9.65Z" transform="translate(37.57 59.37)"/><polygon class="cls-2" points="428.91 1028.47 429 1028.47 440.81 1020.78 449.73 1020.78 436.69 1028.73 450.86 1038.56 441.36 1038.56 429 1029.5 428.91 1029.5 428.91 1038.56 421.27 1038.56 421.27 1020.78 428.91 1020.78 428.91 1028.47"/><polygon class="cls-2" points="463.52 1020.78 487.34 1020.78 487.34 1023.73 471.15 1023.73 471.15 1027.9 486.31 1027.9 486.31 1030.85 471.15 1030.85 471.15 1035.6 487.89 1035.6 487.89 1038.57 463.52 1038.57 463.52 1020.78"/><polygon class="cls-2" points="503.44 1020.78 527.27 1020.78 527.27 1023.73 511.07 1023.73 511.07 1027.9 526.23 1027.9 526.23 1030.85 511.07 1030.85 511.07 1035.6 527.82 1035.6 527.82 1038.57 503.44 1038.57 503.44 1020.78"/><path class="cls-2" d="M531.37,971c0,2.63-1.82,4.75-4.06,4.75s-4.08-2.12-4.08-4.75,1.84-4.75,4.08-4.75,4.06,2.13,4.06,4.75" transform="translate(37.57 59.37)"/><path class="cls-2" d="M85.93,971c0,2.63-1.82,4.75-4.07,4.75S77.8,973.67,77.8,971s1.83-4.75,4.06-4.75,4.07,2.13,4.07,4.75" transform="translate(37.57 59.37)"/><path class="cls-2" d="M435.5,805.66c-6.11,0-13.41,4.89-13.41,11.7,0,13.94,13.08,15.86,24,20.36,11.68,4.82,18.66,15.55,18.79,29.3.25,22.47-10.35,36.54-37,37.22-12.48.31-33.38-6.5-33.38-24.87,0-12.39,8.28-22.82,19.38-22.82,6.13,0,13.84,3.34,13.84,11.78,0,5.51-2.79,11.89-8.25,11.89-4,0-7.16-2.24-7.35-4.3s-5.55,1.38-5.55,7.13,5.94,9.65,13.22,9.65c8,0,16.85-5.05,20.12-19.75,2-9.07,1.71-16.76-15-23.88-6.52-2.78-26.49-7.36-26.25-22.74.2-12.17,7.86-21.13,20.11-26.17,4.14-1.72,15.33-4.61,25.11-1.15a85,85,0,0,1,10.53,4.6l1.72-7.14a8.79,8.79,0,0,1,3.38,1.58c3.38,2.92,4.43,12,1.52,22.8-1.1.88-5.47,1.12-7,.2s-6.63-15.39-18.6-15.39" transform="translate(37.57 59.37)"/><path class="cls-2" d="M137.43,896.75c-1.29-1.28-4.1-2.6-5.54-5.11-3.07-5.22-26.8-72.41-26.8-72.41s-3.25-4.88-6.24-1.38-11.54,11.2-13.33,13.34-2.15,5.74-.86,6.49a30.08,30.08,0,0,1,4.47,2.94,5.08,5.08,0,0,1,.71,4.71c-.87,2-12.55,37.82-12.55,37.82a10.94,10.94,0,0,0-3-.14c-2.52.37-5,1.56-3.74,5.46a11.39,11.39,0,0,0,3,4.3A10.74,10.74,0,0,0,75,893.88s-3.68,10.86-6.31,17.81c-1.55,4.11-4.82,6.41-6,9,2.72-9,2.73-18.3.47-22.93-6.1-12.51-22.93-12.66-30.8-8.06C45.42,878.38,60.82,864.4,60,847.85c-2.51-24.11-42.49-6.67-67.87,16.46-15.48,14.12-10,34.23,1.18,30.31,7.81-2.73,11.92-11.76,5.78-15.25-2-1.12-6.33-.73-7.74-3.41s14-15.25,14.26-10.25c1,21,1,67.48,1,80.06,0,6.26-8.94,25-19.17,21-4.45-2.64-7-8.63-4.87-15.18,1.89-6,7.18.33,10.61-1,5.55-2.52,6.55-13.1,3.82-18.7-4.22-8.67-14.44-8.88-20.55-4.08s-9,16.56-8.27,22.86c1,14.87,9.61,21.15,20.56,23.44,0,0-1.2,2.65-2.91,3.32-7.6,4.33-9.41-5.31-12.36-1.1-4.15,6-1.28,12,6.09,12.79,10.71,1.14,15.23-5.79,27.84-24.7C14.23,954.13,18,947.15,26,948c15.4,1.72,26-6.41,32.57-17.68a44.71,44.71,0,0,0,3.67-8.24c-.64,2.73-.66,7.31-.52,10.87,8.69-3.86,20.14-8.24,28-10.86.16-4.17-.78-10.63-1.77-11.83-1.48-1.78-7.18-3.83-6.65-5.69s2.34-8.18,2.82-9.45c5.43.12,18.6-3.59,23.6-7,1.21,5.18,2,6.9,2.32,9.28s-6.11,6.13-7.27,9c-.73,1.8-1.47,10-1.65,11.91,9.06-2.79,24-7,38.63-10.32.14-1.39.34-8.73-2.31-11.3m-101-49.35c13.46,5.5-5.53,31.4-12.94,47.73.33-18.32,1-35.88,2.25-40.38.84-3.09,5.88-7.67,10.69-7.35m-7,90.15c-3.07-.19-6.21-1.86-6.21-7.71,0-9.07.06-21.55.28-33.78,7,2.14,21.31,5.93,22.29,20.56.32,8.6-8.13,19.92-16.36,20.93m72.39-57.18a41.91,41.91,0,0,1-14.53,3.82c.33-.77.41-1.93,1.44-5s4.57-13.83,5.41-16.78,2.44-2.88,3.4-1,4.85,13.2,5.41,14.73a3.79,3.79,0,0,1-1.13,4.22" transform="translate(37.57 59.37)"/><path class="cls-2" d="M251.84,840.25c8.26-8.1,12.92-14.74,12.61-25-.34-11.9-8.41-22.66-18.2-23.17a24.64,24.64,0,0,0-15.07,4.49,25.32,25.32,0,0,1-10.53,5,33.72,33.72,0,0,1-9.35,1c-3.09-.12-5.16,1.5-5.11,5.16a9.78,9.78,0,0,0,2.79,6c4.29,4.5,5.27,6.9,5.39,10.6s-.11,47.49-.11,49.42.08,2.82.08,5.81-4.81,3.2-5.8,6.4a12.2,12.2,0,0,0-.46,1.7c-.06-.7-.13-1.4-.24-2.16-.59-4-2.28-11.93-4.57-17.13-3.44-7.88-11.69-15.25-26.91-15.54,15.37-7,24.44-20.53,24.94-29.86.81-14.95-8.53-25.57-21.24-23.12a69.8,69.8,0,0,0-19.93,8,24.3,24.3,0,0,1-10.64,3.46c-1.9.18-5.49.32-7.16,1.14-2.62,1.27-3.67,2.66-3.14,5.27.63,3.1,4.5,5.42,6.34,7.87a9.41,9.41,0,0,1,2.11,6.49c0,2.2,0,53.13,0,53.13s-.15,5.36-.4,6.56c-.61,3-5.19,3.59-5.42,6.07s-.46,9.89-.46,9.89c11.78-2.58,22.44-4.55,34.82-6.67,0,0,.23-7.27-1.73-9.18s-4.46-2.21-5.78-3.7a6.71,6.71,0,0,1-2.09-5.2c0-2.6-.11-21.83-.11-21.83a8,8,0,0,1,2.63-1.16c4.14-1.16,8.58,1.48,11.58,4.45s8.7,10.58,8.32,17.36c-.32,6-5,5.71-6.45,8.26s-1.33,10.2-1.33,10.2c10.62-1.61,15.94-2.35,26.47-3.68h0c1.78-.19,27.15-2.89,35-3.67,24.42-2.49,26.95-24.72,26.95-33a19.17,19.17,0,0,0-17.81-19.58m-86.08,9.86V815.4s6.48-4.44,9.66-5.65,6.33,3.79,6.33,16c0,17.84-16,24.4-16,24.4m66-41.91c2.19-1.89,8.56-6.12,11.17-4.55,5.12,3.06,6.11,10,2.3,19.63-2.86,7.23-13.49,15.15-13.49,15.15Zm12.32,65.73c-3.33,1.84-9.64,3.42-12.39,3.93l0-30.44s2.87-.16,9.21-1.23c3.64-.62,14.72-.5,15.37,5.45,1,9.41-5.29,18.5-12.24,22.29" transform="translate(37.57 59.37)"/><path class="cls-2" d="M365.92,884.2c-1.12,2.32-1.21,8.44-1.21,8.44,13.26.88,20.6,1.57,31.27,2.65a84.27,84.27,0,0,1-1.57-8.89,78.64,78.64,0,0,0-4.61-16.64c-3.59-8.83-9.39-15.92-24.4-23.44,11.7-5.6,17.63-14.53,18.12-23.83.8-14.89-6.74-28.59-20.24-30.22a61.8,61.8,0,0,0-20.12,1.23c-4.71,1.15-8.13-.93-11.55-1.47-5.4-.86-9-1-9.7,3.59-.55,3.79,3.14,6.5,5.07,9.47a11.45,11.45,0,0,1,2.2,7.08c0,2.25.33,58.45.33,62.11s-6.51,3.69-8.15,6.13c.47-1.85,1-4,1.49-6.7a97.69,97.69,0,0,0,1.86-18.39c0-2.6-6-5.69-7.28.34s-5,14.16-7.9,17.44-12.87,3.46-19.62,2.62l0-35.18,9.65.17s2,12.73,3.88,13.93,6-.57,5.27-3.09c-1.86-6.72-2.78-12.22-4-22.54-.77-6.47-6.35-5-6.65-.69-.19,2.43-.32,3.28-.32,3.28h-7.8V806.82s9.38-11.27,16-2.59c2.62,3.45,3.87,8.43,3.71,14.8-.07,2.93,8.05,4.82,8.05-1.55,0-9.5-.15-22.78-.3-24.94-.31-4.14-4.18-4.48-5-1-.52,2.32-2.5,5.55-4.17,2.24-1.4-2.77-5.41-3.63-8.52-3.63s-12.13,6.89-17.25,8.09-10.84.17-12.54,0-5.27,7.24-2,9.47c2,1.37,5.57,2.74,5.57,9.11s0,52.4,0,56.7-6,5.26-7.75,8.31a21.43,21.43,0,0,0-2.42,10c19.79-.84,41.29-1.27,54.38-1,12.35.05,33.13,1,41.73,1.49,0,0,.16-5.88-1.89-8.32s-4.64-3.37-6-5.22-2.18-3.16-2.18-5.78,0-23,0-23a4.33,4.33,0,0,1,2.62.06c3.89,1,9.94,4.16,13.06,7.93s8,12.58,7.44,21c-.28,3.93-5.31,2.79-6.47,5.25m-17.56-41.62-.1-40s4.48-1.57,7.77-1.31c3.49.3,9.06,5.35,9.09,17.65.06,18-16.76,23.7-16.76,23.7" transform="translate(37.57 59.37)"/><path class="cls-2" d="M592.45,885.21C587.57,854.52,570.36,829.83,554,830S528.39,855.28,533.27,886s22.07,55.39,38.42,55.16,25.64-25.23,20.76-55.9m-26.64,36.7c-5.46.13-11.24-16-12.87-36.09s1.48-36.41,6.95-36.55,11.25,16,12.88,36.06-1.48,36.43-7,36.58" transform="translate(37.57 59.37)"/><path class="cls-2" d="M527.73,901.94V835.06c0-2.6,6.41-3.6,6.41-6v-6.61l-32.9-11.34s-.49,11,.23,12.47c.43.83,3.71,2.85,5.79,5.09a11.93,11.93,0,0,1,2.71,6.72c-.05,4.8,0,24.34,0,24.34-2.64,2.3-15-2.94-19.07-6.6,0,0-.1-25.25,0-27.28s1.89-2.07,3.6-4.15,1.95-10,2.14-11.9a313.56,313.56,0,0,0-32.16-8.3s-.76,9.44-.57,11.89,3.59,4.72,4.73,5.66,3.2,3.21,3.2,7.93v15.78c-7.11-3.81-8.59,2.17-5.28,6.73a29.16,29.16,0,0,0,5.28,5.62V890c0,3.41-7,3.31-8.19,6.6a29.94,29.94,0,0,0-1.31,8.83c12.42,2.42,25,5.48,35.39,8.36,0-3.53-.4-7.15-.6-9.4s-5.47-6-6.23-9.64-.18-29.81-.18-29.81c3.8,2.92,13.56,6.86,19.25,5.83v26.66c0,3.7-5.55,3.79-6.09,8a70.22,70.22,0,0,0-.47,10c11.75,3.38,22.52,6.85,31.68,10.37.06-1.06,0-7.22,0-10.44s-7.35-9.21-7.35-13.35" transform="translate(37.57 59.37)"/><path class="cls-2" d="M630.14,863.58c-11-4.79-22.58-9.78-25.06-10.62s-6.44-3.44-8.11-4c-5.22-1.63-5.77,7.14-1.51,10.86S600,873,600,876V901.1c-1.76-.45-3.11.52-3.27,3.53-.15,2.76,1.34,4.38,3.27,6v25.73c0,3.3-5.24,2.59-6.33,5.58-1.38,3.88-1,12.32-1.08,13.15,4.5,2.49,17.16,12,26.09,21.19,1.17,1,2.48,1.87,4.11,1.38a2.37,2.37,0,0,0,1.77-1.74c.08-4.86.13-10.79-.06-12.39-.53-4.66-7-10.3-7-14.42V920.36s11.83,7.07,18.29,8.17,16.61-3.92,16.5-20.06c-.22-26-9.38-39.35-22.1-44.89m3.27,44.49c-3.44,8.1-15.83.61-15.83.61s.27-34.76.27-35.17c0-5.91,11.72-1.45,14.88,6.53,1.11,2.8,5.19,17.38.68,28" transform="translate(37.57 59.37)"/><path class="cls-2" d="M395,690.35c-3.45-9.2-9.85-26.33-11.91-30.1-1.59-2.89-5-4.73-8.9-4.79a11.26,11.26,0,0,0-10,5.17c-2.22,3.72-8.51,16.43-13.63,26.78L344.32,700l2.47,1.09c9.31,4.18,32.2,7.15,44.55,5.82a7,7,0,0,0,5-3.55,9,9,0,0,0,.55-8Zm-4,13.93c-11.44,1.24-34.32-1.63-43.21-5.59,1.77-3.28,15.31-31.18,18.62-36.73,3.12-5.24,11.86-5.06,14.39-.46s12.25,31.21,13.65,34.81c1.7,4.38-1.3,7.74-3.45,8m91.08,60.32c-3.47-3.63-10.11-4.23-14.59-13.45-6.71-13.9-66.79-169.07-67.69-171.28-2-4.87-10.54-10.55-17-7.55-9,4.18-32.44,14.81-37.46,17.94s-6.31,10.4-2.84,12.92,10.44,8.11,12,9.44,3.69,6.66,1.56,10.39-35.9,67-35.9,67c-.57.08-3.76-.17-5.55-.16-6.62.08-14.15,1.76-12.66,10.71.56,3.43,3.42,6.89,5.88,9.31a44,44,0,0,0,3.83,3.44s-13.78,29.22-18,37.11c-4.64,8.76-9.33,7.27-11.85,11.67s-2.53,16-2.05,20.09c10.89-.67,57.36-.26,69.14.55.08-4.17-4.24-18.6-9.28-22.7s-18.8-5.61-15.68-12.35c1.83-4,11.14-22.64,12.55-24.93,14.86,4.31,56.16,5.54,70.11,2.2a258.87,258.87,0,0,1,7.63,26.07c.91,4.57-24.29,7.95-28.49,13.26-2.4,3-4.58,16.69-4.7,19.52,19.42.29,84.65,9.28,108.19,15,.07-1.91-.15-26.87-7.17-34.23M483.87,795c-25-5.24-75-12.17-97.42-13.5l-2.49-.14.41-2.45c.29-1.73,1.81-10.43,3.33-12.75l.12-.16.13-.14c1.5-1.61,5.83-3.16,13.83-5.62s15.18-4.7,15.18-8.67l-.11-1a263.3,263.3,0,0,0-7.74-26.51s-.42-1.06-.83-2.12c-1.1.28-2.21.53-2.21.53-13.46,3.25-54.6,2-68.77-2.14l-1.88-.56-1,1.68c-1.56,2.5-11.06,21.54-12.73,25.2a7.17,7.17,0,0,0-.69,3,6.13,6.13,0,0,0,.42,2.23c1.41,3.51,5.72,5.27,10.27,7.12a28,28,0,0,1,6.42,3.15c3.22,2.61,6.08,10.65,7.29,15l.8,2.94-3-.12c-14.41-.52-44.3-.82-58.65-.45h-2.22s-.09-2.29-.09-2.51c0-1.67.1-10.24,2-13.51.66-1.16,1.52-1.69,3.1-2.62a20.41,20.41,0,0,0,8.8-9.13c4.15-7.83,17.33-35.73,18-37.09.05-.13.36-1.05.68-2l-5-4.51c-3.78-3.72-4.89-6.35-5.15-7.88l-.15-1.76a5,5,0,0,1,1-3.26c1.43-1.72,4.55-2.62,9.37-2.67l3,.1,3.07,0,.93,0,.74-1.36c11.67-21.89,34.16-64,35.87-67a10.28,10.28,0,0,0,1.26-5c0-3.57-1.58-7-3.39-8.6s-8.66-7-12-9.43l-.43-.29-.25-.44a3.68,3.68,0,0,1-.38-1.79,7.75,7.75,0,0,1,3.58-6.25c3.95-2.47,20.8-10.22,30.85-14.87l6.33-2.93c2.44-1.11,5.16-.35,6.57.2,3,1.2,6,3.78,6.93,6l3.83,9.82c14.38,37,58.14,149.56,63.92,161.57,3.34,6.88,7.77,9.47,11.31,11.53a16.07,16.07,0,0,1,3.73,2.59c4.67,4.88,6,20,6.32,26.25l.16,2.91Zm-9.59-27.28c-3.65-2.14-9.16-5.34-13.09-13.48-5.87-12.15-49.67-124.84-64.06-161.86l-3.82-9.81a9.11,9.11,0,0,0-4.42-3.51,4.27,4.27,0,0,0-3-.3l-6.34,2.93c-9.31,4.3-26.65,12.27-30.36,14.61a3,3,0,0,0-1.36,2c3.65,2.69,9.75,7.57,11.37,9,2.6,2.25,4.95,7,4.95,12a14.43,14.43,0,0,1-1.86,7.22C360.72,629.22,340,668,326.45,693.4l-2,3.81-3.66-.1-3.07,0-2.94-.09c-4.51.06-5.76,1-5.81,1s-.06.48-.06.48l.1,1c0,.19.42,2,3.8,5.38l7.08,6.4-1.69,5,0,.12c-.15.29-13.85,29.34-18.14,37.41a25,25,0,0,1-10.48,10.89,6.55,6.55,0,0,0-1.47,1c-.58,1-1.17,4.69-1.32,9.3,14.05-.28,38.91-.05,53.4.39-1.54-4.57-3.52-8.68-4.86-9.76a29.28,29.28,0,0,0-5.27-2.49c-5-2-10.65-4.3-12.75-9.62a10.25,10.25,0,0,1-.75-3.87,11.51,11.51,0,0,1,1.1-4.82c1.79-3.88,11.27-22.9,13-25.69l2.84-4.56,5.14,1.5c13.72,4,53.47,5.22,66.47,2.1l6-1.45,2.23,5.79a265.61,265.61,0,0,1,8,27.23l.17,1.85c0,7.27-8.48,9.91-18.33,13-2.82.87-10.15,3.16-11.72,4.31a48.2,48.2,0,0,0-2.12,8.38c22.69,1.59,67.67,7.81,92.65,12.82-.79-10.13-2.68-18.2-4.86-20.51a15.92,15.92,0,0,0-2.75-1.8m-74.08-62a11.5,11.5,0,0,1-8.37,5.66c-12.93,1.39-37-1.78-46.86-6.16l-6.76-3,8.44-16.84c5.1-10.27,11.44-23.07,13.75-26.95A15.67,15.67,0,0,1,374.32,651c5.5.09,10.38,2.82,12.73,7.12,2.05,3.76,7.14,17.21,12.18,30.67l1.87,5a13.42,13.42,0,0,1-.9,11.91" transform="translate(37.57 59.37)"/><path class="cls-2" d="M642.1,816.55c-3.11-5.93-13-23.1-11.63-51.06.38-8.62,4.11-33.94,4.17-37.91.12-6.53-5.38-9.6-13.2-12.24-11-3.72-30.54-6.53-44.13-7-10.68-.37-19.15.7-20.33,6.38-1.36,6.36,2.52,10.43,8.63,13.2,9.79,4.42,14.3,8,17.31,10.89s4.7,7.71,5.35,10.83c.55,2.72,1.84,24.06,1.45,31.14s-2.52,9.86-6.37,9.4c-18.86-2.21-64.21-4.4-71.5-86.74-2.58-29.16,9.28-73.83,42.18-73.65,11.19,0,19.54,2.4,23.71,7.72,6.87,8.76,12.75,26.14,18.43,44.68a44.25,44.25,0,0,0,20.5,1.56c2.41-.43,5.37-3.23,6.41-11.07,3.34-25.17,4.7-38.34,4.7-52.37,0-6.39-2.06-10.42-3.76-12.34-3.11-3.55-8.2-4-14.56-1.41-2.77,1.1-5.66,3.11-9.5,3.3a53.4,53.4,0,0,1-18.7-2.58c-11-3.56-19.32-7.76-31.3-7.77-46.86,0-87.18,38.53-86.25,95.65s28,123,132,134.22c28,3,28.88,14.66,40.37,8.29,7.92-4.41,9-15.37,6-21.13m-7.25,18.85c-4.74,2.64-6.72,1.67-12.08-.93A73.3,73.3,0,0,0,596,826.82c-105.61-11.35-128.83-77.9-129.73-131.68-.45-27,8.69-51.43,25.74-68.74A80.6,80.6,0,0,1,550,602.11c8.82,0,15.5,2.4,23.25,5.15,5.65,2,7,2.41,7.38,2.55l-.12-.06a55.58,55.58,0,0,0,19.62,2.71,20.55,20.55,0,0,0,8.27-2.55l2.07-.93c6.73-2.7,10-1.11,11.62.69.75.85,3.13,4.08,3.13,10.65,0,14.41-1.5,28.25-4.67,52-.71,5.28-2.35,7.93-3.62,8.64l-.33.16-.37.07a41.11,41.11,0,0,1-16.77-.9l-1.24-.3-.36-1.22c-5.27-17-11.1-34-18-42.86-4.47-5.73-13.14-8.67-25.74-8.73-10.43-.06-19.48,4-26.94,12.11-14.82,16.11-19.63,43.94-17.83,64.37,7.23,81.64,52.45,86.71,71.75,88.87l2,.22a7.18,7.18,0,0,0,5.61-1.52c2.22-1.88,3.4-5.16,3.67-10.3.39-7-.85-28.66-1.5-31.83-.39-1.84-2-8.18-6.09-12.17-3-2.84-7.66-6.71-18-11.39-7.57-3.41-7.82-7.3-7.18-10.3.68-3.29,6.49-4.7,17.71-4.32,12.72.44,32.43,3.12,43.39,6.85,8.54,2.91,11.54,5.45,11.45,9.76,0,1.51-.67,6.82-1.6,14.18-1.11,8.78-2.37,18.72-2.59,23.64-1.27,27.41,8,44.94,11.49,51.52l.44.85c2.41,4.6,1.67,14-4.94,17.66M635.4,819c-3.65-6.91-13.35-25.18-12-53.82.21-5.11,1.49-15.15,2.61-24,.69-5.49,1.55-12.3,1.56-13.68,0-.89.06-2.56-8.4-5.43-10.59-3.61-29.71-6.2-42.1-6.63-9.69-.33-12.55.83-13.25,1.24a3,3,0,0,0-.05.43c0,1.1.7,2.57,4.75,4.39,11,5,16.09,9.16,19.31,12.27,5.06,4.87,6.91,12.31,7.37,14.47.61,3,1.67,19.8,1.67,29.2,0,1.47,0,2.75-.08,3.77-.38,6.48-2,10.76-5.27,13.49a11.51,11.51,0,0,1-9,2.55l-2-.23c-20.4-2.28-68.18-7.63-75.71-92.92-1.89-21.42,3.24-50.67,19-67.79,8.33-9.07,18.51-13.62,30.24-13.55,14,.06,23.88,3.57,29.25,10.43,6.83,8.7,12.3,23.51,18.37,43a35.81,35.81,0,0,0,13,.68,14.6,14.6,0,0,0,1.43-5.12c3.13-23.56,4.62-37.27,4.62-51.42,0-5.24-1.8-7.46-2-7.68-.86-1-3.34-.83-6.49.45l-1.92.88a24.85,24.85,0,0,1-10,3A60.5,60.5,0,0,1,579,614s-7.28-2.51-7.33-2.51c-7.35-2.63-13.72-4.89-21.77-4.89a76.18,76.18,0,0,0-54.71,22.94c-15.8,16.06-24.45,38.63-24.45,63.69,0,.62,0,1.23,0,1.82.87,52,23.37,116.31,125.71,127.31,14.79,1.59,22.87,5.51,28.21,8.1,5.06,2.44,5.26,2.55,8,1,4.47-2.47,4.39-9.33,3.17-11.67Z" transform="translate(37.57 59.37)"/><path class="cls-2" d="M29.33,757.45c0,.25.18.45.2.7l-.12-.51-.08-.19M139.19,599.72c-.87,3-2.25,7.76-2.25,7.76l-2.25,7.77-7.4-3.29a249.83,249.83,0,0,0-25.93-9.41c-22.47-6.61-48.75-1.37-59.51,2.34-29.49,10.14-46,27.53-46.37,49-.42,22.56,32.78,32.51,52.65,38.48l9.38,2.95c44.11,15.71,48.85,35,42.46,59.13-7.85,29.52-29.52,47.14-58,47.14C18.42,801.55,1.31,790,1.31,774c0-13.47,11.42-23,19-23.44a8.45,8.45,0,0,1,9,6.84c.56.76,4.91,3.55,11.84,3.55,10.15,0,13.92-11.15,13.92-18.17,0-14.16-18.39-17.89-28.1-17.89-22.87,0-41,17.92-42.22,41.67-.61,12.17,4.28,22.86,14.12,30.93,19.05,15.63,52.72,19.83,87.86,11,46.54-11.71,71.92-38,69.69-72.1-1.43-21.86-20.53-41.71-49.79-51.8l-14.09-4.42c-23.06-7-51.79-15.59-51.79-45.43,0-18.82,21.7-31.92,41.17-31.92,27.28,0,41.94,20.73,48.95,30.67,0,0,1.53,2,2.06,2.8a27.4,27.4,0,0,0,8.27.13,74.45,74.45,0,0,0,3-19.57c0-9.69-2.56-15.11-5-17.13m176.46-23.05c-34.52-29.32-75.4,8.75-116.3,27.55-6.77,3.11-21.44,7-21.44-.08,0-10.4,11.23-20.41,3-20.41-12.9,0-26.42,5.3-34.3,13.71a14.78,14.78,0,0,0-3.48-3.71c-3.33-2.42-8.54-3.33-8.54-3.33l-4.39,15.11a251.73,251.73,0,0,0-26.8-9.75c-24.83-7.3-53.3-1.17-63.8,2.43C8.39,608.91-11.1,627.91-11.59,653.72c-.61,32.64,50.15,42.32,66.73,48.22,42.36,15.1,43.09,31.45,38,50.66C84.85,783.76,62.37,794.46,42,794.46c-18.49,0-33.59-8.26-33.59-20.44S22,754.54,22.51,758.93,31,768,41.16,768c13.9,0,21-13.55,21-25.24,0-17.87-19.58-25-35.18-25-28.25,0-48,22.13-49.28,48.41-2.12,42.33,51.17,64.13,110.77,49.13,55.1-13.9,77.21-46,75-79.42-1.75-26.61-24.9-47.82-54.6-58-27.81-9.58-61.06-13.63-61.06-43.16,0-14.49,18.58-24.84,34.1-24.84,30.42,0,43.34,30.68,47.23,32.63s15,1.43,17.81-.43c.81-2.54,1.49-5,2.06-7.47,4.21,3.28,10.15,5.19,18.48,4,14.8-2,21.62-7.62,38.07-15.89,0,0-1.06,119.86-1.06,127.91,0,11.35-8.75,11.2-15.73,16-3.91,2.69-4.46,18-4.72,23.72,28.49-4.23,68.4-7.68,95.89-8.16,1-4.53-4.41-21-12.25-24.17-7-2.81-18.62-4.12-18.62-11.18,0-33.35,3.88-145.62,3.88-145.62,13.82-9.32,26.39-6,30.32.3,2.26,3.64.5,10.52-1,15.74l.47.21-1.4,3.16c-.55,2.09-.75,3.45-.07,3.45,11.77,9.43,31-9.61,38.06-21.39,4.7-7.06,3.66-19.81-3.74-26.09M145.14,639.06l-.38,1.28-1.32.27c-3.13.66-9.77.88-12.63-.27l-.49-.09-3.1-4.17c-6.58-9.34-20.32-28.78-45.29-28.78-17.35,0-36.7,11.26-36.7,27.44,0,26.51,24.71,34,48.65,41.13l14.17,4.49c31,10.68,51.29,32,52.84,55.74,2.41,36.46-24.23,64.43-73,76.73C51.33,822,16.17,817.49-4,801c-11-9-16.43-21-15.75-34.61,1.32-26.19,21.39-45.93,46.69-45.93,11.27,0,32.58,4.67,32.58,22.37,0,8.75-5,22.64-18.4,22.64-8.52,0-15-3.67-16-6.3l-.09-.25,0-.25a4.08,4.08,0,0,0-4.55-3.58c-5.81.31-14.75,8.6-14.75,19,0,13.35,15.22,23,36.19,23,26.3,0,46.36-16.36,53.66-43.8,6.08-22.94,1.55-39.09-39.55-53.74l-9.26-2.92C25.77,690.28-9.48,679.73-9,653.78c.43-23.46,18-42.33,49.37-53.14,11.23-3.85,38.68-9.32,62.23-2.39a251.14,251.14,0,0,1,26.47,9.63s1.38.59,2.71,1.21c.42-1.42,3.87-13.31,3.87-13.31l.56-2.72,5.33,2.76c4.54,3.29,7.13,10.95,7.13,21a80.33,80.33,0,0,1-3.55,22.21m172-37.63c-4.81,8-16.52,20.69-26.4,22.45a10,10,0,0,1-5.34-.34l-1.93-.72,1.07-3.85c1.06-3.78,2.39-8.47,2.39-12.63a11.45,11.45,0,0,0-1.47-6.13c-2.09-3.31-5.95-5.79-10.62-6.79-7.28-1.54-15.58.49-23.35,5.73l-1.1.73c0,.67,0,1.33,0,1.33-.05,1.1-3.87,112.85-3.87,145.7,0,6.75,6.74,9.34,14.95,11.82l5.27,1.76c5.56,2.22,9.23,12.69,10.17,16.54l.68,2.69-2.77.09c-25.24.71-58.72,3.56-85.27,7.24l-2.74.38.2-2.76c.86-12.46,2.39-14.66,2.9-15.38L190,769l5.71-3c5.34-2.49,11.41-5.29,11.41-15.24,0-8,1-126.72,1-127.91,0,0,.05-2.18.09-4.34l-14.48,7.62c-9.57,5.15-15.9,8.57-26.63,10-7.21,1-13-.42-17.27-4.13-.08-.07-.14-.16-.22-.23.39-1.94.72-3.82,1-5.67a14.57,14.57,0,0,0,2.18,2.52c3.25,2.83,7.86,3.86,13.74,3.06,9.92-1.35,16-4.62,25.12-9.56L212.86,611l-.2,11.89c0,1.15-1.08,119.84-1.08,127.84,0,12.8-8.41,16.72-14,19.29,0,0-3.52,1.85-4.22,2.23-.34.77-1.11,3.27-1.71,10,25.24-3.4,55.89-6,80-6.83-1.64-4.83-4.4-9.88-6.63-10.78l.21,0c-.56-.15-1.74-.54-5.2-1.67-7.17-2.18-18.06-5.46-18.06-16.1,0-32.94,3.85-144.74,3.88-145.86l.13-3.61,3-2c8.79-5.93,18.3-8.19,26.78-6.39,5.85,1.25,10.76,4.46,13.48,8.81a15.74,15.74,0,0,1,2.16,8.49c0,4.54-1.3,9.28-2.41,13.24.31,0,.61,0,1-.09,8-1.44,18.91-13,23.39-20.45a12.4,12.4,0,0,0,1.74-6.77c0-3.81-1.29-7.89-4-10.22-22.74-19.3-50.47-3.51-79.85,13.19h0c-9.41,5.37-19.16,10.89-28.92,15.39-1.82.84-18,8-26.65,2.46a10.29,10.29,0,0,1-4.82-9A31.2,31.2,0,0,1,174,591.58c-9.85,1.59-19.51,6.44-24.22,13.07a28.48,28.48,0,0,0-1.84-4.88c6.73-7.5,18.48-12.39,29.65-13.2l3.81-.26-1.92,4.1c-1.74,3.63-4.13,8.59-4.13,13.73a5.89,5.89,0,0,0,2.76,5.2c5.61,3.6,18-.77,22.36-2.76,9.59-4.41,19.25-9.91,28.59-15.22h0c30.76-17.53,59.82-34.06,85-12.72,6.49,5.52,7,17,3.19,22.79" transform="translate(37.57 59.37)"/><path class="cls-2" d="M176.51,441.76c-1.8,62.83,81.69,74.92,127.77,78.66-7.82-2.3-24.52-4.1-36.45-6.39-13-2.53-17.57-7.59-30.48-11.81-22.62-7.37-52-21.32-58.63-47.62Z" transform="translate(37.57 59.37)"/><path class="cls-2" d="M179.74,358.79c5.58-9.44-.35-11.06-4.13-14.41,9.87.34-4.36-7.22,2.07-10.28q-7.73-.53-10.29,4.11c1.27.07,2.39.34,2.05,2.06-1.63.41-4,.08-4.12,2.06,11.58,1.19,10.48,9.78,14.42,14.4-1.12,0-2.32,1.63,0,2.06" transform="translate(37.57 59.37)"/><path class="cls-2" d="M439.22,161.09c9.09-20.08-1.29-48.65,8.25-65.9-17.08-27.28-17.8-58.66-39.14-80.32C394.19.52,384.87-7.64,371.47-24.55,352.83-28,345-34.74,332.14-40.75,285.62-62.46,207.55-53,175.61-34.57c-8.32,16.39-27.2,22.23-37.06,37.08-2.65-.09-2.83-2.66-6.19-2.06-3.69,15.45-18.78,19.14-26.76,35C99.93,46.79,102,61.56,97.37,74.6c-5,13.9-21.11,25.4-22.67,41.18-2.14,22.14,12,45.22-4.11,65.91,4.11,11,5.75,24.46,8.23,37.07-19,38.08,19.67,63.15,28.85,92.67,9.87,1.81,18.27,5.05,24.69,10.3.43,8.67-10.11,6.34-8.23,16.47,5.58,7.46,19.66,6.45,33,6.18,10.38,22.56,10.82,55.08,16.48,82.37,7-28-3.94-50-12.36-88.55-31.31-17.41-49-48.48-51.48-94.74,9.7,3.62,14.68.78,18.53-6.17,2.49,7.38,12,10.72,16.47,10.3-1,10.2-7.54,13-6.17,20.6,6.51-.35,6.85,5.49,14.42,4.12,3.94-5,4.55-13.31,10.3-16.48,8.65,1.88,10.37,1.54,22.65,2.06,4-7.72,5.74-17.6,10.3-24.7,3.68-3.89,10.8-2.17,12.35,2.05,2.44-14,34-10.71,37.7-9.52,4.24,44.33,10.56,51.72,16,61.67.45.94,3.19,3.19,5.61,4.59,21.88,11.85,70.38-3.19,77-11,4.8-5.62,21.11-40.91,30.56-66.39,22.56,14.51,31.92,42.21,49.42,61.8,52.2-4.42,50.67-36.17,49.84-78.77-.08-4.15-.4-10.44-1.85-15-2.72-8.67-17-24.05-33.57-21.53M268.29,274.36c-3.69-6.6-5-15.62-8.24-22.66,7.37-3.85,18.19,6.53,26.78,8.25-3.79,7.21-6.17,15.78-18.54,14.41m96.78-88.55c1.73-3.09,5.15-4.46,10.31-4.12-.7,8.16-6.18,9.17-10.31,4.12M245.64,214.63c-21.19-.93-33.64,2.5-49.42,0-3.7-23.77,16.21-34.57,14.41-57.66-.34-4.38-3.35-8.41-4.12-12.35-6.36-32.45-4-57.83,4.12-86.5,8-3.69,9.61-4.38,10.3-12.36,14-2.22,16.3-8,26.77-10.3-4.11,4.72.5,2.31,2.06,6.18,24.45-6,33-4.12,46.34-5.67,5.75,2.07,2.13,5,7.2,7.73,2.39-.34,1.71-3.78,2-6.18,3.87,2.31,10,2.4,8.24,10.3,23.95-19,45.92,15,63.86,2.07,28,25,50.11,68,51.47,107.08-50.19,30.11-151.19,9.44-183.27,57.66m208,49.43c-2.4-.33-3.69.42-4.11,2.06-7.63-2.15-5.06-20.59,4.11-18.53-.93,1.81-1.8,3.69-4.11,4.11-1,6.53,6.34,4.64,4.11,12.36" transform="translate(37.57 59.37)"/><path class="cls-2" d="M32.78,585.62c28.24-10.38,50.85-9.12,79.65-5,5.23.75,22.11-4.41,35.09-8.76-1.13-12.13-3.59-23.1-4.85-35.84-.08-.84-.13-1.65-.16-2.49.16-3.89.31-7.77.48-11.57,1.85-14,7.62-26.68,8.89-40.93,1.1-12.08-3.59-23.73-5.59-36.16.14-3.26.27-5.88.34-7.75-.4.08-1.41.36-1.41.36a12.79,12.79,0,0,0-8.54,7.38h0C125.92,454.24,115,464,104.06,473.61c-9.19,8.14-19.29,21.56-29.75,28.49l-4,2.21C53.42,511.47-1,512.75-4.45,528.05l-6.7,94.68c10.89-15.27,27.3-31,43.93-37.11" transform="translate(37.57 59.37)"/><path class="cls-2" d="M405.64,476.64c13.69-11.62,12.93-39.36,13.27-39.38l20.52,50.46c6.11,18,1.65,64.92,0,76.62-1.06,7.54-4.84,14.68-7.2,22.13,14.24,4.59,31.84,7.55,47.88,5.3,37.65-5.27,71.26-10.31,101,2.69,3.67,1.81,17.25,3.19,22.52.56,6.37-3.2,12.16-4.3,17.45-3.85-1-42-3.52-98.92-10.07-103.21-4.1-2.67-20.89-7.94-20.89-7.94-12.88-5.52-39.66-27.07-63.49-37.59-9.21-4.07-26.64-6.3-53.56-10.23-4.14-.61-34.52-2.57-43.94-8-10.37-6-12.61-5.42-12.1,6.95l.84,5.86c-.37,20.45-7.79,30.31-23.95,43a131.8,131.8,0,0,1-24.71,15.12c-7.07,3.37-22.55,3.83-26.49,10.31l.88-.89c23.74-7.66,42.59-11.46,62.08-27.95" transform="translate(37.57 59.37)"/><path class="cls-2" d="M422.53,391.71c-.86.47-1.76,2.1-2.57,2.79s-2.65,11.38-11,16.85c-2.84,1.86-10.34,1.76-16.87,2.11-9,.53-30.65,4.93-40.43,6.19s-48.56-.79-60.11-3.53a159.33,159.33,0,0,1-23.29-7.82c-6.71-1.3-32.75-13.8-37.17-17.1-6-4.42-12.65-8.88-19.37-11.76-5.4-2.31-6-3.35-9.41-7.44-2-2.36-2.39-16.6-4.21-24.11-1.24-4.43-3.41,1.86-3.41,1.86.77,23,1.72,35.05,4.78,40.79s23.31,21.39,24.13,26.8c.52,3.52,25.38,28.43,34.85,28.27,26.71-.54,67.4-.31,81.18-2.59s31.64-4.84,39.19-7.7c9.86-3.73,24.47-12.15,28.37-14.53,5.79-3.51,8.57-9.85,10.19-14.15s4.46-10.68,5.14-12.07a3.61,3.61,0,0,0,0-2.86" transform="translate(37.57 59.37)"/><path class="cls-2" d="M444.11,317c-9.86-4.72-37-14.5-29.6-34.41-14.24,11.15-37-8.42-55.62,6.16-8.66,8.85,8.75,13.67,2.06,20.6-21.88,16.06-57.49,28.76-49.43,68,0,.08,1.2,5.22,2.22,8.32a27.66,27.66,0,0,1,.73,5.35c4.21,1.32,3.77-1.5,6.23-4.13-.63-4-.67-5.91,1.16-7.48,0,0,0,0,0,0,5.33-25,27.77-33,56.37-34.75a3.87,3.87,0,0,1,1-.32,29,29,0,0,0,4.19-.61,22.61,22.61,0,0,1,4.08-1.1c4-.6,8,.11,12-.73a19.33,19.33,0,0,1,4.62-.33c5.2-1,10.28-.75,13.4,3.31-3.71,0-11.94,2.5-19.56,3.21-.76.21-1.54.4-2.29.59a56.37,56.37,0,0,1-14.54,2c-.88,0-1.83,0-2.79-.08-2.54.23-5.63-.08-8.43-.12-.83.07-2.45.58-1.78,1.79,8.59,14.11,21.92,17.41,38.21,16.81,2.31-3,2.23-5.06-2.06-6.19,11.33-8.73,18.44-16.63,28.84-8.23-3.79,11.68-9.19,13.93-7.78,30.78,0,0,7.83-11.76,10.19-18.72,6-17.72,9.05-35.8,12-57.37-1.47.43-4,5.75-3.36,7.65" transform="translate(37.57 59.37)"/></svg>